<?xml version="1.0" encoding="UTF-8" standalone="no"?><svg xmlns="http://www.w3.org/2000/svg" xmlns:xlink="http://www.w3.org/1999/xlink" contentStyleType="text/css" height="825px" preserveAspectRatio="none" style="width:3676px;height:825px;background:#FFFFFF;" version="1.1" viewBox="0 0 3676 825" width="3676px" zoomAndPan="magnify"><defs/><g><!--MD5=[4f19ba6121ad114bc8367f7b5178f4e7]
cluster src_dal_fba75381--><g id="cluster_src_dal_fba75381"><path d="M8.5,6 L61.5,6 A3.75,3.75 0 0 1 64,8.5 L71,28.2969 L3666.5,28.2969 A2.5,2.5 0 0 1 3669,30.7969 L3669,815.5 A2.5,2.5 0 0 1 3666.5,818 L8.5,818 A2.5,2.5 0 0 1 6,815.5 L6,8.5 A2.5,2.5 0 0 1 8.5,6 " style="stroke:#000000;stroke-width:1.5;fill:none;"/><line style="stroke:#000000;stroke-width:1.5;fill:none;" x1="6" x2="71" y1="28.2969" y2="28.2969"/><text fill="#000000" font-family="sans-serif" font-size="14" font-weight="bold" lengthAdjust="spacing" textLength="52" x="10" y="20.9951">src/dal</text></g><!--MD5=[f2d347bd45f88f2ddb13ad13466d17b3]
entity entity_type_9c71b9e6--><g id="elem_entity_type_9c71b9e6"><rect fill="#F1F1F1" height="95.4844" rx="2.5" ry="2.5" style="stroke:#181818;stroke-width:0.5;" width="147" x="2563.5" y="82.5"/><text fill="#000000" font-family="sans-serif" font-size="14" lengthAdjust="spacing" textLength="75" x="2573.5" y="98.4951">EntityType</text><line style="stroke:#181818;stroke-width:1.0;" x1="2564.5" x2="2709.5" y1="101.7969" y2="101.7969"/><text fill="#000000" font-family="sans-serif" font-size="14" lengthAdjust="spacing" textLength="9" x="2573.5" y="118.792">{</text><text fill="#000000" font-family="sans-serif" font-size="14" lengthAdjust="spacing" textLength="37" x="2581.5" y="135.0889">id: ID</text><text fill="#000000" font-family="sans-serif" font-size="14" lengthAdjust="spacing" textLength="119" x="2581.5" y="151.3857">[key: string]: any</text><text fill="#000000" font-family="sans-serif" font-size="14" lengthAdjust="spacing" textLength="9" x="2573.5" y="167.6826">}</text></g><!--MD5=[f4f2554d36c57d7afcbce7ec90cc52d0]
entity string_key_object_9c71b9e6--><g id="elem_string_key_object_9c71b9e6"><rect fill="#F1F1F1" height="46.5938" rx="2.5" ry="2.5" style="stroke:#181818;stroke-width:0.5;" width="134" x="2746" y="106.5"/><text fill="#000000" font-family="sans-serif" font-size="14" lengthAdjust="spacing" textLength="114" x="2756" y="122.4951">StringKeyObject</text><line style="stroke:#181818;stroke-width:1.0;" x1="2747" x2="2879" y1="125.7969" y2="125.7969"/><text fill="#000000" font-family="sans-serif" font-size="14" lengthAdjust="spacing" textLength="111" x="2756" y="142.792">{ [k: string]: T }</text></g><!--MD5=[53998d7a7a3c75d646f23ce11967b621]
entity orm_find_one_options_9c71b9e6--><g id="elem_orm_find_one_options_9c71b9e6"><rect fill="#F1F1F1" height="46.5938" rx="2.5" ry="2.5" style="stroke:#181818;stroke-width:0.5;" width="380" x="1495" y="106.5"/><text fill="#000000" font-family="sans-serif" font-size="14" lengthAdjust="spacing" textLength="144" x="1505" y="122.4951">OrmFindOneOptions</text><line style="stroke:#181818;stroke-width:1.0;" x1="1496" x2="1874" y1="125.7969" y2="125.7969"/><text fill="#000000" font-family="sans-serif" font-size="14" lengthAdjust="spacing" textLength="360" x="1505" y="142.792">Partial&lt;OrmRelationsOptions&gt; &amp; OrmFilterOptions</text></g><!--MD5=[a27a622b51ecfdac1c4523d6d803b6b1]
entity orm_find_one_by_id_options_9c71b9e6--><g id="elem_orm_find_one_by_id_options_9c71b9e6"><rect fill="#F1F1F1" height="46.5938" rx="2.5" ry="2.5" style="stroke:#181818;stroke-width:0.5;" width="240" x="1220" y="106.5"/><text fill="#000000" font-family="sans-serif" font-size="14" lengthAdjust="spacing" textLength="175" x="1230" y="122.4951">OrmFindOneByIdOptions</text><line style="stroke:#181818;stroke-width:1.0;" x1="1221" x2="1459" y1="125.7969" y2="125.7969"/><text fill="#000000" font-family="sans-serif" font-size="14" lengthAdjust="spacing" textLength="220" x="1230" y="142.792">Partial&lt;OrmRelationsOptions&gt;</text></g><!--MD5=[728238e488d9386e1dc964781ef11db1]
entity orm_find_many_options_9c71b9e6--><g id="elem_orm_find_many_options_9c71b9e6"><rect fill="#F1F1F1" height="46.5938" rx="2.5" ry="2.5" style="stroke:#181818;stroke-width:0.5;" width="665" x="519.5" y="106.5"/><text fill="#000000" font-family="sans-serif" font-size="14" lengthAdjust="spacing" textLength="153" x="529.5" y="122.4951">OrmFindManyOptions</text><line style="stroke:#181818;stroke-width:1.0;" x1="520.5" x2="1183.5" y1="125.7969" y2="125.7969"/><text fill="#000000" font-family="sans-serif" font-size="14" lengthAdjust="spacing" textLength="645" x="529.5" y="142.792">Partial&lt;OrmFilterOptions &amp; OrmSortOptions &amp; OrmPagingOptions &amp; OrmRelationsOptions&gt;</text></g><!--MD5=[0818407fbe9f5c9dba834c36705ab564]
class common_dal_implementable_9c71b9e6--><g id="elem_common_dal_implementable_9c71b9e6"><rect codeLine="30" fill="#F1F1F1" height="178.375" id="common_dal_implementable_9c71b9e6" rx="2.5" ry="2.5" style="stroke:#181818;stroke-width:0.5;" width="462" x="22" y="41"/><ellipse cx="150.25" cy="57" fill="#B4A7E5" rx="11" ry="11" style="stroke:#181818;stroke-width:1.0;"/><path d="M146.6719,52.7656 L146.6719,50.5 L154.0625,50.5 L154.0625,52.7656 L151.5938,52.7656 L151.5938,61.2344 L154.0625,61.2344 L154.0625,63.5 L146.6719,63.5 L146.6719,61.2344 L149.1406,61.2344 L149.1406,52.7656 L146.6719,52.7656 Z " fill="#000000"/><text fill="#000000" font-family="sans-serif" font-size="14" font-style="italic" lengthAdjust="spacing" textLength="197" x="170.75" y="61.8467">CommonDalImplementable</text><line style="stroke:#181818;stroke-width:0.5;" x1="23" x2="483" y1="73" y2="73"/><line style="stroke:#181818;stroke-width:0.5;" x1="23" x2="483" y1="81" y2="81"/><ellipse cx="33" cy="92" fill="#84BE84" rx="3" ry="3" style="stroke:#038048;stroke-width:1.0;"/><text fill="#000000" font-family="sans-serif" font-size="14" lengthAdjust="spacing" textLength="408" x="42" y="97.9951">findOne(options?: OrmFindOneOptions): Promise&lt;Entity&gt;</text><ellipse cx="33" cy="108.2969" fill="#84BE84" rx="3" ry="3" style="stroke:#038048;stroke-width:1.0;"/><text fill="#000000" font-family="sans-serif" font-size="14" lengthAdjust="spacing" textLength="158" x="42" y="114.292">findOneById(id: string,</text><text fill="#000000" font-family="sans-serif" font-size="14" lengthAdjust="spacing" textLength="378" x="46" y="130.5889">options?: OrmFindOneByIdOptions): Promise&lt;Entity&gt;</text><ellipse cx="33" cy="140.8906" fill="#84BE84" rx="3" ry="3" style="stroke:#038048;stroke-width:1.0;"/><text fill="#000000" font-family="sans-serif" font-size="14" lengthAdjust="spacing" textLength="436" x="42" y="146.8857">findMany(options?: OrmFindManyOptions): Promise&lt;Entity[]&gt;</text><ellipse cx="33" cy="157.1875" fill="#84BE84" rx="3" ry="3" style="stroke:#038048;stroke-width:1.0;"/><text fill="#000000" font-family="sans-serif" font-size="14" lengthAdjust="spacing" textLength="388" x="42" y="163.1826">addBulk(entities: Partial&lt;Entity&gt;[]): Promise&lt;Entity[]&gt;</text><ellipse cx="33" cy="173.4844" fill="#84BE84" rx="3" ry="3" style="stroke:#038048;stroke-width:1.0;"/><text fill="#000000" font-family="sans-serif" font-size="14" lengthAdjust="spacing" textLength="388" x="42" y="179.4795">editBulk(entities: Partial&lt;Entity&gt;[]): Promise&lt;Entity[]&gt;</text><ellipse cx="33" cy="189.7813" fill="#84BE84" rx="3" ry="3" style="stroke:#038048;stroke-width:1.0;"/><text fill="#000000" font-family="sans-serif" font-size="14" lengthAdjust="spacing" textLength="384" x="42" y="195.7764">removeBulk(entity: Partial&lt;Entity&gt;[]): Promise&lt;void&gt;</text><ellipse cx="33" cy="206.0781" fill="#84BE84" rx="3" ry="3" style="stroke:#038048;stroke-width:1.0;"/><text fill="#000000" font-family="sans-serif" font-size="14" lengthAdjust="spacing" textLength="302" x="42" y="212.0732">removeByIds(ids: string[]): Promise&lt;void&gt;</text></g><!--MD5=[26775dbb0ffebc6899f2ff1c62706b5d]
class common_dal_360219ee--><g id="elem_common_dal_360219ee"><rect codeLine="39" fill="#F1F1F1" height="308.75" id="common_dal_360219ee" rx="2.5" ry="2.5" style="stroke:#181818;stroke-width:0.5;" width="481" x="716.5" y="279"/><ellipse cx="908.25" cy="295" fill="#A9DCDF" rx="11" ry="11" style="stroke:#181818;stroke-width:1.0;"/><path d="M908.375,290.3125 L907.2188,295.6406 L909.5313,295.6406 L908.375,290.3125 Z M906.875,287.75 L909.875,287.75 L913.2188,300.75 L910.7656,300.75 L910,297.75 L906.7188,297.75 L905.9688,300.75 L903.5313,300.75 L906.875,287.75 Z " fill="#000000"/><text fill="#000000" font-family="sans-serif" font-size="14" font-style="italic" lengthAdjust="spacing" textLength="89" x="928.75" y="299.8467">CommonDal</text><line style="stroke:#181818;stroke-width:0.5;" x1="717.5" x2="1196.5" y1="311" y2="311"/><polygon fill="none" points="727.5,317,731.5,321,727.5,325,723.5,321" style="stroke:#B38D22;stroke-width:1.0;"/><text fill="#000000" font-family="sans-serif" font-size="14" lengthAdjust="spacing" textLength="299" x="736.5" y="327.9951">_dal: CommonDalImplementable&lt;Entity&gt;</text><line style="stroke:#181818;stroke-width:0.5;" x1="717.5" x2="1196.5" y1="335.2969" y2="335.2969"/><polygon fill="#FFFF44" points="727.5,341.2969,731.5,345.2969,727.5,349.2969,723.5,345.2969" style="stroke:#B38D22;stroke-width:1.0;"/><text fill="#000000" font-family="sans-serif" font-size="14" font-style="italic" lengthAdjust="spacing" textLength="310" x="736.5" y="352.292">_entityToModels(...entities: Entity[]): Model[]</text><polygon fill="#FFFF44" points="727.5,357.5938,731.5,361.5938,727.5,365.5938,723.5,361.5938" style="stroke:#B38D22;stroke-width:1.0;"/><text fill="#000000" font-family="sans-serif" font-size="14" font-style="italic" lengthAdjust="spacing" textLength="455" x="736.5" y="368.5889">_modelToEntities(...models: Partial&lt;Model&gt;[]): Partial&lt;Entity&gt;[]</text><ellipse cx="727.5" cy="378.8906" fill="#84BE84" rx="3" ry="3" style="stroke:#038048;stroke-width:1.0;"/><text fill="#000000" font-family="sans-serif" font-size="14" lengthAdjust="spacing" textLength="336" x="736.5" y="384.8857">add(model: Partial&lt;Model&gt;): Promise&lt;Model&gt;</text><ellipse cx="727.5" cy="395.1875" fill="#84BE84" rx="3" ry="3" style="stroke:#038048;stroke-width:1.0;"/><text fill="#000000" font-family="sans-serif" font-size="14" lengthAdjust="spacing" textLength="394" x="736.5" y="401.1826">addBulk(models: Partial&lt;Model&gt;[]): Promise&lt;Model[]&gt;</text><polygon fill="#FFFF44" points="727.5,406.4844,731.5,410.4844,727.5,414.4844,723.5,410.4844" style="stroke:#B38D22;stroke-width:1.0;"/><text fill="#000000" font-family="sans-serif" font-size="14" lengthAdjust="spacing" textLength="383" x="736.5" y="417.4795">constructor(dal: CommonDalImplementable&lt;Entity&gt;)</text><ellipse cx="727.5" cy="427.7813" fill="#84BE84" rx="3" ry="3" style="stroke:#038048;stroke-width:1.0;"/><text fill="#000000" font-family="sans-serif" font-size="14" lengthAdjust="spacing" textLength="336" x="736.5" y="433.7764">edit(model: Partial&lt;Model&gt;): Promise&lt;Model&gt;</text><ellipse cx="727.5" cy="444.0781" fill="#84BE84" rx="3" ry="3" style="stroke:#038048;stroke-width:1.0;"/><text fill="#000000" font-family="sans-serif" font-size="14" lengthAdjust="spacing" textLength="394" x="736.5" y="450.0732">editBulk(models: Partial&lt;Model&gt;[]): Promise&lt;Model[]&gt;</text><ellipse cx="727.5" cy="460.375" fill="#84BE84" rx="3" ry="3" style="stroke:#038048;stroke-width:1.0;"/><text fill="#000000" font-family="sans-serif" font-size="14" lengthAdjust="spacing" textLength="439" x="736.5" y="466.3701">findMany(options?: OrmFindManyOptions): Promise&lt;Model[]&gt;</text><ellipse cx="727.5" cy="476.6719" fill="#84BE84" rx="3" ry="3" style="stroke:#038048;stroke-width:1.0;"/><text fill="#000000" font-family="sans-serif" font-size="14" lengthAdjust="spacing" textLength="413" x="736.5" y="482.667">findOne(params?: OrmFindOneOptions): Promise&lt;Model&gt;</text><ellipse cx="727.5" cy="492.9688" fill="#84BE84" rx="3" ry="3" style="stroke:#038048;stroke-width:1.0;"/><text fill="#000000" font-family="sans-serif" font-size="14" lengthAdjust="spacing" textLength="158" x="736.5" y="498.9639">findOneById(id: string,</text><text fill="#000000" font-family="sans-serif" font-size="14" lengthAdjust="spacing" textLength="381" x="740.5" y="515.2607">options?: OrmFindOneByIdOptions): Promise&lt;Model&gt;</text><ellipse cx="727.5" cy="525.5625" fill="#84BE84" rx="3" ry="3" style="stroke:#038048;stroke-width:1.0;"/><text fill="#000000" font-family="sans-serif" font-size="14" lengthAdjust="spacing" textLength="351" x="736.5" y="531.5576">remove(model: Partial&lt;Model&gt;): Promise&lt;void&gt;</text><ellipse cx="727.5" cy="541.8594" fill="#84BE84" rx="3" ry="3" style="stroke:#038048;stroke-width:1.0;"/><text fill="#000000" font-family="sans-serif" font-size="14" lengthAdjust="spacing" textLength="399" x="736.5" y="547.8545">removeBulk(models: Partial&lt;Model&gt;[]): Promise&lt;void&gt;</text><ellipse cx="727.5" cy="558.1563" fill="#84BE84" rx="3" ry="3" style="stroke:#038048;stroke-width:1.0;"/><text fill="#000000" font-family="sans-serif" font-size="14" lengthAdjust="spacing" textLength="278" x="736.5" y="564.1514">removeById(id: string): Promise&lt;void&gt;</text><ellipse cx="727.5" cy="574.4531" fill="#84BE84" rx="3" ry="3" style="stroke:#038048;stroke-width:1.0;"/><text fill="#000000" font-family="sans-serif" font-size="14" lengthAdjust="spacing" textLength="302" x="736.5" y="580.4482">removeByIds(ids: string[]): Promise&lt;void&gt;</text></g><!--MD5=[e55d72399d5e9de63830fcd44a2ca135]
class orm_comparison_operator_b1a66587--><g id="elem_orm_comparison_operator_b1a66587"><rect codeLine="56" fill="#F1F1F1" height="162.0781" id="orm_comparison_operator_b1a66587" rx="2.5" ry="2.5" style="stroke:#181818;stroke-width:0.5;" width="242" x="2915" y="49"/><ellipse cx="2943.05" cy="65" fill="#EB937F" rx="11" ry="11" style="stroke:#181818;stroke-width:1.0;"/><path d="M2947.175,71.5 L2939.4406,71.5 L2939.4406,58.5 L2947.175,58.5 L2947.175,60.7656 L2941.8938,60.7656 L2941.8938,63.5 L2946.675,63.5 L2946.675,65.7656 L2941.8938,65.7656 L2941.8938,69.2344 L2947.175,69.2344 L2947.175,71.5 Z " fill="#000000"/><text fill="#000000" font-family="sans-serif" font-size="14" lengthAdjust="spacing" textLength="181" x="2959.95" y="69.8467">OrmComparisonOperator</text><line style="stroke:#181818;stroke-width:0.5;" x1="2916" x2="3156" y1="81" y2="81"/><text fill="#000000" font-family="sans-serif" font-size="14" lengthAdjust="spacing" textLength="168" x="2921" y="97.9951">BETWEEN = '$between'</text><text fill="#000000" font-family="sans-serif" font-size="14" lengthAdjust="spacing" textLength="163" x="2921" y="114.292">GREATER_THEN = '$&gt;'</text><text fill="#000000" font-family="sans-serif" font-size="14" lengthAdjust="spacing" textLength="230" x="2921" y="130.5889">GREATER_THEN_EQUAL = '$&gt;='</text><text fill="#000000" font-family="sans-serif" font-size="14" lengthAdjust="spacing" textLength="64" x="2921" y="146.8857">IN = '$in'</text><text fill="#000000" font-family="sans-serif" font-size="14" lengthAdjust="spacing" textLength="130" x="2921" y="163.1826">LESS_THEN = '$&lt;'</text><text fill="#000000" font-family="sans-serif" font-size="14" lengthAdjust="spacing" textLength="197" x="2921" y="179.4795">LESS_THEN_EQUAL = '$&lt;='</text><text fill="#000000" font-family="sans-serif" font-size="14" lengthAdjust="spacing" textLength="146" x="2921" y="195.7764">NOT_EQUAL = '$&lt;&gt;'</text><line style="stroke:#181818;stroke-width:0.5;" x1="2916" x2="3156" y1="203.0781" y2="203.0781"/></g><!--MD5=[db3bbbbb3993d742ebafabc6f15a2d5e]
class orm_logical_operator_b1a66587--><g id="elem_orm_logical_operator_b1a66587"><rect codeLine="65" fill="#F1F1F1" height="96.8906" id="orm_logical_operator_b1a66587" rx="2.5" ry="2.5" style="stroke:#181818;stroke-width:0.5;" width="178" x="3192" y="81.5"/><ellipse cx="3207" cy="97.5" fill="#EB937F" rx="11" ry="11" style="stroke:#181818;stroke-width:1.0;"/><path d="M3211.125,104 L3203.3906,104 L3203.3906,91 L3211.125,91 L3211.125,93.2656 L3205.8438,93.2656 L3205.8438,96 L3210.625,96 L3210.625,98.2656 L3205.8438,98.2656 L3205.8438,101.7344 L3211.125,101.7344 L3211.125,104 Z " fill="#000000"/><text fill="#000000" font-family="sans-serif" font-size="14" lengthAdjust="spacing" textLength="146" x="3221" y="102.3467">OrmLogicalOperator</text><line style="stroke:#181818;stroke-width:0.5;" x1="3193" x2="3369" y1="113.5" y2="113.5"/><text fill="#000000" font-family="sans-serif" font-size="14" lengthAdjust="spacing" textLength="95" x="3198" y="130.4951">AND = '$and'</text><text fill="#000000" font-family="sans-serif" font-size="14" lengthAdjust="spacing" textLength="90" x="3198" y="146.792">NOT = '$not'</text><text fill="#000000" font-family="sans-serif" font-size="14" lengthAdjust="spacing" textLength="73" x="3198" y="163.0889">OR = '$or'</text><line style="stroke:#181818;stroke-width:0.5;" x1="3193" x2="3369" y1="170.3906" y2="170.3906"/></g><!--MD5=[1b372744ab02a4521ad4e2f2a4b4123e]
class orm_between_include_b1a66587--><g id="elem_orm_between_include_b1a66587"><rect codeLine="70" fill="#F1F1F1" height="96.8906" id="orm_between_include_b1a66587" rx="2.5" ry="2.5" style="stroke:#181818;stroke-width:0.5;" width="177" x="1910.5" y="81.5"/><ellipse cx="1925.5" cy="97.5" fill="#EB937F" rx="11" ry="11" style="stroke:#181818;stroke-width:1.0;"/><path d="M1929.625,104 L1921.8906,104 L1921.8906,91 L1929.625,91 L1929.625,93.2656 L1924.3438,93.2656 L1924.3438,96 L1929.125,96 L1929.125,98.2656 L1924.3438,98.2656 L1924.3438,101.7344 L1929.625,101.7344 L1929.625,104 Z " fill="#000000"/><text fill="#000000" font-family="sans-serif" font-size="14" lengthAdjust="spacing" textLength="145" x="1939.5" y="102.3467">OrmBetweenInclude</text><line style="stroke:#181818;stroke-width:0.5;" x1="1911.5" x2="2086.5" y1="113.5" y2="113.5"/><text fill="#000000" font-family="sans-serif" font-size="14" lengthAdjust="spacing" textLength="101" x="1916.5" y="130.4951">BOTH = 'both'</text><text fill="#000000" font-family="sans-serif" font-size="14" lengthAdjust="spacing" textLength="103" x="1916.5" y="146.792">FROM = 'from'</text><text fill="#000000" font-family="sans-serif" font-size="14" lengthAdjust="spacing" textLength="62" x="1916.5" y="163.0889">TO = 'to'</text><line style="stroke:#181818;stroke-width:0.5;" x1="1911.5" x2="2086.5" y1="170.3906" y2="170.3906"/></g><g id="elem_orm_comparison_operations_b1a66587"><rect fill="#F1F1F1" height="36.2969" style="stroke:#181818;stroke-width:0.5;" width="247" x="3405.5" y="112"/><text fill="#000000" font-family="sans-serif" font-size="14" lengthAdjust="spacing" textLength="233" x="3412.5" y="126.9951">ORM_COMPARISON_OPERATIONS</text><line style="stroke:#181818;stroke-width:0.5;" x1="3406.5" x2="3651.5" y1="132.2969" y2="132.2969"/></g><g id="elem_orm_logical_operations_b1a66587"><rect fill="#F1F1F1" height="36.2969" style="stroke:#181818;stroke-width:0.5;" width="214" x="2081" y="415.5"/><text fill="#000000" font-family="sans-serif" font-size="14" lengthAdjust="spacing" textLength="200" x="2088" y="430.4951">ORM_LOGICAL_OPERATIONS</text><line style="stroke:#181818;stroke-width:0.5;" x1="2082" x2="2294" y1="435.7969" y2="435.7969"/></g><g id="elem_orm_filter_operations_b1a66587"><rect fill="#F1F1F1" height="36.2969" style="stroke:#181818;stroke-width:0.5;" width="200" x="2330" y="415.5"/><text fill="#000000" font-family="sans-serif" font-size="14" lengthAdjust="spacing" textLength="186" x="2337" y="430.4951">ORM_FILTER_OPERATIONS</text><line style="stroke:#181818;stroke-width:0.5;" x1="2331" x2="2529" y1="435.7969" y2="435.7969"/></g><!--MD5=[6c318a855ed5eda8f690f0d5fe1dedd4]
entity orm_between_include_type_b1a66587--><g id="elem_orm_between_include_type_b1a66587"><rect fill="#F1F1F1" height="46.5938" rx="2.5" ry="2.5" style="stroke:#181818;stroke-width:0.5;" width="314" x="2565" y="410"/><text fill="#000000" font-family="sans-serif" font-size="14" lengthAdjust="spacing" textLength="180" x="2575" y="425.9951">OrmBetweenIncludeType</text><line style="stroke:#181818;stroke-width:1.0;" x1="2566" x2="2878" y1="429.2969" y2="429.2969"/><text fill="#000000" font-family="sans-serif" font-size="14" lengthAdjust="spacing" textLength="294" x="2575" y="446.292">typeof ORM_BETWEEN_INCLUDE[number]</text></g><!--MD5=[48efbccae0248f8bd238fa79e657b42a]
entity orm_comparison_operations_type_b1a66587--><g id="elem_orm_comparison_operations_type_b1a66587"><rect fill="#F1F1F1" height="46.5938" rx="2.5" ry="2.5" style="stroke:#181818;stroke-width:0.5;" width="368" x="2914" y="410"/><text fill="#000000" font-family="sans-serif" font-size="14" lengthAdjust="spacing" textLength="230" x="2924" y="425.9951">OrmComparisonOperationsType</text><line style="stroke:#181818;stroke-width:1.0;" x1="2915" x2="3281" y1="429.2969" y2="429.2969"/><text fill="#000000" font-family="sans-serif" font-size="14" lengthAdjust="spacing" textLength="348" x="2924" y="446.292">typeof ORM_COMPARISON_OPERATIONS[number]</text></g><!--MD5=[d654962485d8a2e0275de1788e0f166a]
entity orm_logical_operations_type_b1a66587--><g id="elem_orm_logical_operations_type_b1a66587"><rect fill="#F1F1F1" height="46.5938" rx="2.5" ry="2.5" style="stroke:#181818;stroke-width:0.5;" width="335" x="3317.5" y="410"/><text fill="#000000" font-family="sans-serif" font-size="14" lengthAdjust="spacing" textLength="195" x="3327.5" y="425.9951">OrmLogicalOperationsType</text><line style="stroke:#181818;stroke-width:1.0;" x1="3318.5" x2="3651.5" y1="429.2969" y2="429.2969"/><text fill="#000000" font-family="sans-serif" font-size="14" lengthAdjust="spacing" textLength="315" x="3327.5" y="446.292">typeof ORM_LOGICAL_OPERATIONS[number]</text></g><!--MD5=[e461d96e286b6cc32760b974ae794973]
entity orm_filter_operations_type_b1a66587--><g id="elem_orm_filter_operations_type_b1a66587"><rect fill="#F1F1F1" height="46.5938" rx="2.5" ry="2.5" style="stroke:#181818;stroke-width:0.5;" width="321" x="2027.5" y="648"/><text fill="#000000" font-family="sans-serif" font-size="14" lengthAdjust="spacing" textLength="180" x="2037.5" y="663.9951">OrmFilterOperationsType</text><line style="stroke:#181818;stroke-width:1.0;" x1="2028.5" x2="2347.5" y1="667.2969" y2="667.2969"/><text fill="#000000" font-family="sans-serif" font-size="14" lengthAdjust="spacing" textLength="301" x="2037.5" y="684.292">typeof ORM_FILTER_OPERATIONS[number]</text></g><!--MD5=[925c6f6f40a52852688d0d2be2e77d8c]
entity orm_filter_operations_key_b1a66587--><g id="elem_orm_filter_operations_key_b1a66587"><rect fill="#F1F1F1" height="46.5938" rx="2.5" ry="2.5" style="stroke:#181818;stroke-width:0.5;" width="253" x="2383.5" y="648"/><text fill="#000000" font-family="sans-serif" font-size="14" lengthAdjust="spacing" textLength="171" x="2393.5" y="663.9951">OrmFilterOperationsKey</text><line style="stroke:#181818;stroke-width:1.0;" x1="2384.5" x2="2635.5" y1="667.2969" y2="667.2969"/><text fill="#000000" font-family="sans-serif" font-size="14" lengthAdjust="spacing" textLength="233" x="2393.5" y="684.292">OrmFilterOperationsType | string</text></g><!--MD5=[47e6ebcce9723045ad3196f237b4c615]
entity orm_filter_option_b1a66587--><g id="elem_orm_filter_option_b1a66587"><rect fill="#F1F1F1" height="46.5938" rx="2.5" ry="2.5" style="stroke:#181818;stroke-width:0.5;" width="406" x="2122" y="106.5"/><text fill="#000000" font-family="sans-serif" font-size="14" lengthAdjust="spacing" textLength="114" x="2132" y="122.4951">OrmFilterOption</text><line style="stroke:#181818;stroke-width:1.0;" x1="2123" x2="2527" y1="125.7969" y2="125.7969"/><text fill="#000000" font-family="sans-serif" font-size="14" lengthAdjust="spacing" textLength="386" x="2132" y="142.792">{ [k: OrmFilterOperationsKey]: OrmFilterOption | any }</text></g><!--MD5=[6dc5747954ad0107e4bf6631dfd82f5b]
entity orm_filter_options_b1a66587--><g id="elem_orm_filter_options_b1a66587"><rect fill="#F1F1F1" height="46.5938" rx="2.5" ry="2.5" style="stroke:#181818;stroke-width:0.5;" width="202" x="2672" y="648"/><text fill="#000000" font-family="sans-serif" font-size="14" lengthAdjust="spacing" textLength="121" x="2682" y="663.9951">OrmFilterOptions</text><line style="stroke:#181818;stroke-width:1.0;" x1="2673" x2="2873" y1="667.2969" y2="667.2969"/><text fill="#000000" font-family="sans-serif" font-size="14" lengthAdjust="spacing" textLength="182" x="2682" y="684.292">{ filter: OrmFilterOption }</text></g><g id="elem_not_b1a66587"><rect fill="#F1F1F1" height="36.2969" style="stroke:#181818;stroke-width:0.5;" width="38" x="1571" y="415.5"/><text fill="#000000" font-family="sans-serif" font-size="14" lengthAdjust="spacing" textLength="24" x="1578" y="430.4951">Not</text><line style="stroke:#181818;stroke-width:0.5;" x1="1572" x2="1608" y1="435.7969" y2="435.7969"/></g><g id="elem_between_include_operation_b1a66587"><rect fill="#F1F1F1" height="36.2969" style="stroke:#181818;stroke-width:0.5;" width="198" x="1338" y="415.5"/><text fill="#000000" font-family="sans-serif" font-size="14" lengthAdjust="spacing" textLength="184" x="1345" y="430.4951">betweenIncludeOperation</text><line style="stroke:#181818;stroke-width:0.5;" x1="1339" x2="1535" y1="435.7969" y2="435.7969"/></g><g id="elem_between_b1a66587"><rect fill="#F1F1F1" height="36.2969" style="stroke:#181818;stroke-width:0.5;" width="76" x="1399" y="653.5"/><text fill="#000000" font-family="sans-serif" font-size="14" lengthAdjust="spacing" textLength="62" x="1406" y="668.4951">Between</text><line style="stroke:#181818;stroke-width:0.5;" x1="1400" x2="1474" y1="673.7969" y2="673.7969"/></g><g id="elem_in_b1a66587"><rect fill="#F1F1F1" height="36.2969" style="stroke:#181818;stroke-width:0.5;" width="27" x="2909.5" y="653.5"/><text fill="#000000" font-family="sans-serif" font-size="14" lengthAdjust="spacing" textLength="13" x="2916.5" y="668.4951">In</text><line style="stroke:#181818;stroke-width:0.5;" x1="2910.5" x2="2935.5" y1="673.7969" y2="673.7969"/></g><g id="elem_or_b1a66587"><rect fill="#F1F1F1" height="36.2969" style="stroke:#181818;stroke-width:0.5;" width="31" x="2971.5" y="653.5"/><text fill="#000000" font-family="sans-serif" font-size="14" lengthAdjust="spacing" textLength="17" x="2978.5" y="668.4951">Or</text><line style="stroke:#181818;stroke-width:0.5;" x1="2972.5" x2="3001.5" y1="673.7969" y2="673.7969"/></g><g id="elem_and_b1a66587"><rect fill="#F1F1F1" height="36.2969" style="stroke:#181818;stroke-width:0.5;" width="42" x="2167" y="760.5"/><text fill="#000000" font-family="sans-serif" font-size="14" lengthAdjust="spacing" textLength="28" x="2174" y="775.4951">And</text><line style="stroke:#181818;stroke-width:0.5;" x1="2168" x2="2208" y1="780.7969" y2="780.7969"/></g><g id="elem_eq_b1a66587"><rect fill="#F1F1F1" height="36.2969" style="stroke:#181818;stroke-width:0.5;" width="34" x="1644" y="415.5"/><text fill="#000000" font-family="sans-serif" font-size="14" lengthAdjust="spacing" textLength="20" x="1651" y="430.4951">EQ</text><line style="stroke:#181818;stroke-width:0.5;" x1="1645" x2="1677" y1="435.7969" y2="435.7969"/></g><g id="elem_neq_b1a66587"><rect fill="#F1F1F1" height="36.2969" style="stroke:#181818;stroke-width:0.5;" width="44" x="1713" y="415.5"/><text fill="#000000" font-family="sans-serif" font-size="14" lengthAdjust="spacing" textLength="30" x="1720" y="430.4951">NEQ</text><line style="stroke:#181818;stroke-width:0.5;" x1="1714" x2="1756" y1="435.7969" y2="435.7969"/></g><g id="elem_gt_b1a66587"><rect fill="#F1F1F1" height="36.2969" style="stroke:#181818;stroke-width:0.5;" width="34" x="1792" y="415.5"/><text fill="#000000" font-family="sans-serif" font-size="14" lengthAdjust="spacing" textLength="20" x="1799" y="430.4951">GT</text><line style="stroke:#181818;stroke-width:0.5;" x1="1793" x2="1825" y1="435.7969" y2="435.7969"/></g><g id="elem_gte_b1a66587"><rect fill="#F1F1F1" height="36.2969" style="stroke:#181818;stroke-width:0.5;" width="43" x="1861.5" y="415.5"/><text fill="#000000" font-family="sans-serif" font-size="14" lengthAdjust="spacing" textLength="29" x="1868.5" y="430.4951">GTE</text><line style="stroke:#181818;stroke-width:0.5;" x1="1862.5" x2="1903.5" y1="435.7969" y2="435.7969"/></g><g id="elem_lt_b1a66587"><rect fill="#F1F1F1" height="36.2969" style="stroke:#181818;stroke-width:0.5;" width="31" x="1939.5" y="415.5"/><text fill="#000000" font-family="sans-serif" font-size="14" lengthAdjust="spacing" textLength="17" x="1946.5" y="430.4951">LT</text><line style="stroke:#181818;stroke-width:0.5;" x1="1940.5" x2="1969.5" y1="435.7969" y2="435.7969"/></g><g id="elem_lte_b1a66587"><rect fill="#F1F1F1" height="36.2969" style="stroke:#181818;stroke-width:0.5;" width="40" x="2006" y="415.5"/><text fill="#000000" font-family="sans-serif" font-size="14" lengthAdjust="spacing" textLength="26" x="2013" y="430.4951">LTE</text><line style="stroke:#181818;stroke-width:0.5;" x1="2007" x2="2045" y1="435.7969" y2="435.7969"/></g><!--MD5=[67067096465a27a8ec4d932ac50a7e8d]
entity pagination_be8a25ab--><g id="elem_pagination_be8a25ab"><rect fill="#F1F1F1" height="46.5938" rx="2.5" ry="2.5" style="stroke:#181818;stroke-width:0.5;" width="286" x="2244" y="755"/><text fill="#000000" font-family="sans-serif" font-size="14" lengthAdjust="spacing" textLength="75" x="2254" y="770.9951">Pagination</text><line style="stroke:#181818;stroke-width:1.0;" x1="2245" x2="2529" y1="774.2969" y2="774.2969"/><text fill="#000000" font-family="sans-serif" font-size="14" lengthAdjust="spacing" textLength="266" x="2254" y="791.292">{ page: number; pageSize: number }</text></g><!--MD5=[be8f35eef0fd2028b6664862ae153b93]
entity orm_paging_options_be8a25ab--><g id="elem_orm_paging_options_be8a25ab"><rect fill="#F1F1F1" height="46.5938" rx="2.5" ry="2.5" style="stroke:#181818;stroke-width:0.5;" width="206" x="2565" y="755"/><text fill="#000000" font-family="sans-serif" font-size="14" lengthAdjust="spacing" textLength="133" x="2575" y="770.9951">OrmPagingOptions</text><line style="stroke:#181818;stroke-width:1.0;" x1="2566" x2="2770" y1="774.2969" y2="774.2969"/><text fill="#000000" font-family="sans-serif" font-size="14" lengthAdjust="spacing" textLength="186" x="2575" y="791.292">{ pagination: Pagination }</text></g><!--MD5=[83d55296c533027c7816adad6c119a9d]
entity orm_relations_options_2a612572--><g id="elem_orm_relations_options_2a612572"><rect fill="#F1F1F1" height="46.5938" rx="2.5" ry="2.5" style="stroke:#181818;stroke-width:0.5;" width="171" x="2806.5" y="755"/><text fill="#000000" font-family="sans-serif" font-size="14" lengthAdjust="spacing" textLength="151" x="2816.5" y="770.9951">OrmRelationsOptions</text><line style="stroke:#181818;stroke-width:1.0;" x1="2807.5" x2="2976.5" y1="774.2969" y2="774.2969"/><text fill="#000000" font-family="sans-serif" font-size="14" lengthAdjust="spacing" textLength="147" x="2816.5" y="791.292">{ relations: string[] }</text></g><!--MD5=[71c7a8c220dd81ecc9b1efcaab3ae555]
entity orm_sort_options_ff401cdd--><g id="elem_orm_sort_options_ff401cdd"><rect fill="#F1F1F1" height="46.5938" rx="2.5" ry="2.5" style="stroke:#181818;stroke-width:0.5;" width="174" x="3013" y="755"/><text fill="#000000" font-family="sans-serif" font-size="14" lengthAdjust="spacing" textLength="114" x="3023" y="770.9951">OrmSortOptions</text><line style="stroke:#181818;stroke-width:1.0;" x1="3014" x2="3186" y1="774.2969" y2="774.2969"/><text fill="#000000" font-family="sans-serif" font-size="14" lengthAdjust="spacing" textLength="154" x="3023" y="791.292">{ sortByList: string[] }</text></g><!--MD5=[1e44be04e992d628b2c012539a8f6b1a]
reverse link common_dal_implementable_9c71b9e6 to common_dal_360219ee--><g id="link_common_dal_implementable_9c71b9e6_common_dal_360219ee"><path codeLine="163" d="M463.26,221.05 C542.92,255.16 634.21,294.26 716.44,329.48 " fill="none" id="common_dal_implementable_9c71b9e6-backto-common_dal_360219ee" style="stroke:#181818;stroke-width:1.0;"/><polygon fill="#181818" points="458.52,219.02,465.2275,226.2318,463.1187,220.9827,468.3678,218.8739,458.52,219.02" style="stroke:#181818;stroke-width:1.0;"/></g><!--MD5=[362ebf37f8f4edb3bc9d39685c71b07d]
reverse link orm_find_many_options_9c71b9e6 to common_dal_360219ee--><g id="link_orm_find_many_options_9c71b9e6_common_dal_360219ee"><path codeLine="164" d="M861.65,158.7 C871.44,186.83 887.42,232.71 903.52,278.94 " fill="none" id="orm_find_many_options_9c71b9e6-backto-common_dal_360219ee" style="stroke:#181818;stroke-width:1.0;"/><polygon fill="#181818" points="859.89,153.66,859.0652,163.4743,861.5309,158.3831,866.6221,160.8488,859.89,153.66" style="stroke:#181818;stroke-width:1.0;"/></g><!--MD5=[707af589651e6f2ce1800b985d11d9f6]
reverse link orm_find_one_by_id_options_9c71b9e6 to common_dal_360219ee--><g id="link_orm_find_one_by_id_options_9c71b9e6_common_dal_360219ee"><path codeLine="165" d="M1307,156.98 C1271.5,184.93 1212.01,231.75 1152.07,278.94 " fill="none" id="orm_find_one_by_id_options_9c71b9e6-backto-common_dal_360219ee" style="stroke:#181818;stroke-width:1.0;"/><polygon fill="#181818" points="1311.21,153.66,1301.6669,156.095,1307.2849,156.7573,1306.6226,162.3752,1311.21,153.66" style="stroke:#181818;stroke-width:1.0;"/></g><!--MD5=[19cd2c9d7646328cf928f4e71c3fea91]
reverse link orm_find_one_options_9c71b9e6 to common_dal_360219ee--><g id="link_orm_find_one_options_9c71b9e6_common_dal_360219ee"><path codeLine="166" d="M1628.61,155.64 C1587.12,173.6 1529.26,198.32 1478,219 C1408.73,246.95 1390.31,251.15 1321,279 C1281.07,295.05 1238.84,312.45 1197.84,329.58 " fill="none" id="orm_find_one_options_9c71b9e6-backto-common_dal_360219ee" style="stroke:#181818;stroke-width:1.0;"/><polygon fill="#181818" points="1633.33,153.59,1623.4814,153.5215,1628.7469,155.5888,1626.6795,160.8544,1633.33,153.59" style="stroke:#181818;stroke-width:1.0;"/></g><!--MD5=[78452c1f56b04ce61a6e1d5e20bbd0ee]
reverse link orm_filter_option_b1a66587 to not_b1a66587--><g id="link_orm_filter_option_b1a66587_not_b1a66587"><path codeLine="167" d="M2273.84,155.82 C2230.04,176 2164.76,203.57 2105,219 C2001.34,245.76 1706.81,207.64 1627,279 C1587.76,314.08 1586.57,382.88 1588.42,415.09 " fill="none" id="orm_filter_option_b1a66587-backto-not_b1a66587" style="stroke:#181818;stroke-width:1.0;"/><polygon fill="#181818" points="2278.54,153.64,2268.6924,153.7974,2274.004,155.7435,2272.0579,161.055,2278.54,153.64" style="stroke:#181818;stroke-width:1.0;"/></g><!--MD5=[d7d4495412b6a99bbc113f59b611bcab]
reverse link orm_between_include_b1a66587 to between_include_operation_b1a66587--><g id="link_orm_between_include_b1a66587_between_include_operation_b1a66587"><path codeLine="168" d="M1948.16,182.23 C1931.77,196.14 1912.7,209.87 1893,219 C1754.18,283.34 1684.65,199.37 1554,279 C1498.78,312.66 1460.32,382.81 1444.74,415.3 " fill="none" id="orm_between_include_b1a66587-backto-between_include_operation_b1a66587" style="stroke:#181818;stroke-width:1.0;"/><polygon fill="#181818" points="1952.27,178.69,1942.845,181.5481,1948.4868,181.9592,1948.0757,187.6011,1952.27,178.69" style="stroke:#181818;stroke-width:1.0;"/></g><!--MD5=[4d041bd77344be5387d6d9d01c32f4f5]
reverse link between_include_operation_b1a66587 to between_b1a66587--><g id="link_between_include_operation_b1a66587_between_b1a66587"><path codeLine="169" d="M1437,457.01 C1437,504 1437,611.62 1437,653.44 " fill="none" id="between_include_operation_b1a66587-backto-between_b1a66587" style="stroke:#181818;stroke-width:1.0;"/><polygon fill="#181818" points="1437,451.85,1433,460.85,1437,456.85,1441,460.85,1437,451.85" style="stroke:#181818;stroke-width:1.0;"/></g><!--MD5=[95f744082542a7956f56bf4418f2fd3d]
reverse link orm_filter_option_b1a66587 to eq_b1a66587--><g id="link_orm_filter_option_b1a66587_eq_b1a66587"><path codeLine="170" d="M2273.33,155.69 C2229.48,175.66 2164.4,203 2105,219 C2016.3,242.89 1763.46,216.64 1696,279 C1657.46,314.62 1657.04,383.16 1659.24,415.2 " fill="none" id="orm_filter_option_b1a66587-backto-eq_b1a66587" style="stroke:#181818;stroke-width:1.0;"/><polygon fill="#181818" points="2278.04,153.54,2268.1919,153.66,2273.496,155.6262,2271.5298,160.9304,2278.04,153.54" style="stroke:#181818;stroke-width:1.0;"/></g><!--MD5=[8044bde99d2c95cb38df7d53c877f69d]
reverse link orm_filter_option_b1a66587 to neq_b1a66587--><g id="link_orm_filter_option_b1a66587_neq_b1a66587"><path codeLine="171" d="M2271.9,155.74 C2227.99,175.35 2163.55,202.15 2105,219 C1961.74,260.22 1884.29,177.62 1775,279 C1736.23,314.96 1733.12,383.32 1733.98,415.26 " fill="none" id="orm_filter_option_b1a66587-backto-neq_b1a66587" style="stroke:#181818;stroke-width:1.0;"/><polygon fill="#181818" points="2276.62,153.63,2266.7712,153.65,2272.0551,155.67,2270.0351,160.9539,2276.62,153.63" style="stroke:#181818;stroke-width:1.0;"/></g><!--MD5=[466e3ee19e73066f1c730aa1ccba1b0b]
reverse link orm_filter_option_b1a66587 to gt_b1a66587--><g id="link_orm_filter_option_b1a66587_gt_b1a66587"><path codeLine="172" d="M2270.39,155.59 C2226.39,174.73 2162.58,200.99 2105,219 C1991.4,254.54 1928.09,194.76 1844,279 C1806.92,316.14 1805.77,383.91 1807.52,415.48 " fill="none" id="orm_filter_option_b1a66587-backto-gt_b1a66587" style="stroke:#181818;stroke-width:1.0;"/><polygon fill="#181818" points="2275.12,153.53,2265.2714,153.4615,2270.5369,155.5288,2268.4695,160.7944,2275.12,153.53" style="stroke:#181818;stroke-width:1.0;"/></g><!--MD5=[59174761985c56c8ec856b6b6d8f724e]
reverse link orm_filter_option_b1a66587 to gte_b1a66587--><g id="link_orm_filter_option_b1a66587_gte_b1a66587"><path codeLine="173" d="M2266.37,155.63 C2222.28,173.87 2160.21,198.93 2105,219 C2024.56,248.24 1980.43,216.45 1922,279 C1886.15,317.38 1882.08,383.93 1882.33,415.26 " fill="none" id="orm_filter_option_b1a66587-backto-gte_b1a66587" style="stroke:#181818;stroke-width:1.0;"/><polygon fill="#181818" points="2271.12,153.67,2261.2745,153.4133,2266.4996,155.5809,2264.332,160.806,2271.12,153.67" style="stroke:#181818;stroke-width:1.0;"/></g><!--MD5=[5a66ca2e839a71290d1b335448432614]
reverse link orm_filter_option_b1a66587 to lt_b1a66587--><g id="link_orm_filter_option_b1a66587_lt_b1a66587"><path codeLine="174" d="M2261.23,155.48 C2169.01,191.41 2007.37,256.61 1989,279 C1956.11,319.1 1953.31,384.23 1954.06,415.15 " fill="none" id="orm_filter_option_b1a66587-backto-lt_b1a66587" style="stroke:#181818;stroke-width:1.0;"/><polygon fill="#181818" points="2266.12,153.58,2256.2819,153.1198,2261.4611,155.395,2259.1859,160.5741,2266.12,153.58" style="stroke:#181818;stroke-width:1.0;"/></g><!--MD5=[5b8c0bb948cc34ddeeb5911bbe68c7cc]
reverse link orm_filter_option_b1a66587 to lte_b1a66587--><g id="link_orm_filter_option_b1a66587_lte_b1a66587"><path codeLine="175" d="M2248.65,155.41 C2189.58,178.18 2110.3,217.94 2064,279 C2032.48,320.56 2026.82,384.99 2025.99,415.44 " fill="none" id="orm_filter_option_b1a66587-backto-lte_b1a66587" style="stroke:#181818;stroke-width:1.0;"/><polygon fill="#181818" points="2253.58,153.53,2243.745,153.0073,2248.9096,155.3153,2246.6015,160.4799,2253.58,153.53" style="stroke:#181818;stroke-width:1.0;"/></g><!--MD5=[dc266e7e0f5c3c966ac1b56af0183255]
@startuml
    folder "src/dal" as src_dal_fba75381 {
      card entity_type_9c71b9e6 [
        EntityType
        - - -
        {
          id: ID
          [key: string]: any
        }
      ]
      card string_key_object_9c71b9e6 [
        StringKeyObject
        - - -
        { [k: string]: T }
      ]
      card orm_find_one_options_9c71b9e6 [
        OrmFindOneOptions
        - - -
        Partial<OrmRelationsOptions> & OrmFilterOptions
      ]
      card orm_find_one_by_id_options_9c71b9e6 [
        OrmFindOneByIdOptions
        - - -
        Partial<OrmRelationsOptions>
      ]
      card orm_find_many_options_9c71b9e6 [
        OrmFindManyOptions
        - - -
        Partial<OrmFilterOptions & OrmSortOptions & OrmPagingOptions & OrmRelationsOptions>
      ]
      interface "CommonDalImplementable" as common_dal_implementable_9c71b9e6 {
        + findOne(options?: OrmFindOneOptions): Promise<Entity>
        + findOneById(id: string,\n options?: OrmFindOneByIdOptions): Promise<Entity>
        + findMany(options?: OrmFindManyOptions): Promise<Entity[]>
        + addBulk(entities: Partial<Entity>[]): Promise<Entity[]>
        + editBulk(entities: Partial<Entity>[]): Promise<Entity[]>
        + removeBulk(entity: Partial<Entity>[]): Promise<void>
        + removeByIds(ids: string[]): Promise<void>
      }
      abstract "CommonDal" as common_dal_360219ee {
        # _dal: CommonDalImplementable<Entity>
        # {abstract} _entityToModels(...entities: Entity[]): Model[]
        # {abstract} _modelToEntities(...models: Partial<Model>[]): Partial<Entity>[]
        + add(model: Partial<Model>): Promise<Model>
        + addBulk(models: Partial<Model>[]): Promise<Model[]>
        # constructor(dal: CommonDalImplementable<Entity>)
        + edit(model: Partial<Model>): Promise<Model>
        + editBulk(models: Partial<Model>[]): Promise<Model[]>
        + findMany(options?: OrmFindManyOptions): Promise<Model[]>
        + findOne(params?: OrmFindOneOptions): Promise<Model>
        + findOneById(id: string,\n options?: OrmFindOneByIdOptions): Promise<Model>
        + remove(model: Partial<Model>): Promise<void>
        + removeBulk(models: Partial<Model>[]): Promise<void>
        + removeById(id: string): Promise<void>
        + removeByIds(ids: string[]): Promise<void>
      }
      enum "OrmComparisonOperator" as orm_comparison_operator_b1a66587 {
        BETWEEN = '$between'
        GREATER_THEN = '$>'
        GREATER_THEN_EQUAL = '$>='
        IN = '$in'
        LESS_THEN = '$<'
        LESS_THEN_EQUAL = '$<='
        NOT_EQUAL = '$<>'
      }
      enum "OrmLogicalOperator" as orm_logical_operator_b1a66587 {
        AND = '$and'
        NOT = '$not'
        OR = '$or'
      }
      enum "OrmBetweenInclude" as orm_between_include_b1a66587 {
        BOTH = 'both'
        FROM = 'from'
        TO = 'to'
      }
      object "ORM_COMPARISON_OPERATIONS" as orm_comparison_operations_b1a66587 {
      }
      object "ORM_LOGICAL_OPERATIONS" as orm_logical_operations_b1a66587 {
      }
      object "ORM_FILTER_OPERATIONS" as orm_filter_operations_b1a66587 {
      }
      object "ORM_BETWEEN_INCLUDE" as orm_between_include_b1a66587 {
      }
      card orm_between_include_type_b1a66587 [
        OrmBetweenIncludeType
        - - -
        typeof ORM_BETWEEN_INCLUDE[number]
      ]
      card orm_comparison_operations_type_b1a66587 [
        OrmComparisonOperationsType
        - - -
        typeof ORM_COMPARISON_OPERATIONS[number]
      ]
      card orm_logical_operations_type_b1a66587 [
        OrmLogicalOperationsType
        - - -
        typeof ORM_LOGICAL_OPERATIONS[number]
      ]
      card orm_filter_operations_type_b1a66587 [
        OrmFilterOperationsType
        - - -
        typeof ORM_FILTER_OPERATIONS[number]
      ]
      card orm_filter_operations_key_b1a66587 [
        OrmFilterOperationsKey
        - - -
        OrmFilterOperationsType | string
      ]
      card orm_filter_option_b1a66587 [
        OrmFilterOption
        - - -
        { [k: OrmFilterOperationsKey]: OrmFilterOption | any }
      ]
      card orm_filter_options_b1a66587 [
        OrmFilterOptions
        - - -
        { filter: OrmFilterOption }
      ]
      object "Not" as not_b1a66587 {
      }
      object "betweenIncludeOperation" as between_include_operation_b1a66587 {
      }
      object "Between" as between_b1a66587 {
      }
      object "In" as in_b1a66587 {
      }
      object "Or" as or_b1a66587 {
      }
      object "And" as and_b1a66587 {
      }
      object "EQ" as eq_b1a66587 {
      }
      object "NEQ" as neq_b1a66587 {
      }
      object "GT" as gt_b1a66587 {
      }
      object "GTE" as gte_b1a66587 {
      }
      object "LT" as lt_b1a66587 {
      }
      object "LTE" as lte_b1a66587 {
      }
      card pagination_be8a25ab [
        Pagination
        - - -
        { page: number; pageSize: number }
      ]
      card orm_paging_options_be8a25ab [
        OrmPagingOptions
        - - -
        { pagination: Pagination }
      ]
      card orm_relations_options_2a612572 [
        OrmRelationsOptions
        - - -
        { relations: string[] }
      ]
      card orm_sort_options_ff401cdd [
        OrmSortOptions
        - - -
        { sortByList: string[] }
      ]
    }
  common_dal_360219ee -up-> common_dal_implementable_9c71b9e6
  common_dal_360219ee -up-> orm_find_many_options_9c71b9e6
  common_dal_360219ee -up-> orm_find_one_by_id_options_9c71b9e6
  common_dal_360219ee -up-> orm_find_one_options_9c71b9e6
  not_b1a66587 -up-> orm_filter_option_b1a66587
  between_include_operation_b1a66587 -up-> orm_between_include_b1a66587
  between_b1a66587 -up-> between_include_operation_b1a66587
  eq_b1a66587 -up-> orm_filter_option_b1a66587
  neq_b1a66587 -up-> orm_filter_option_b1a66587
  gt_b1a66587 -up-> orm_filter_option_b1a66587
  gte_b1a66587 -up-> orm_filter_option_b1a66587
  lt_b1a66587 -up-> orm_filter_option_b1a66587
  lte_b1a66587 -up-> orm_filter_option_b1a66587
@enduml

PlantUML version 1.2022.4(Sat Apr 09 15:29:17 CEST 2022)
(GPL source distribution)
Java Runtime: OpenJDK Runtime Environment
JVM: OpenJDK 64-Bit Server VM
Default Encoding: UTF-8
Language: en
Country: US
--></g></svg>