<?xml version="1.0" encoding="UTF-8" standalone="no"?><svg xmlns="http://www.w3.org/2000/svg" xmlns:xlink="http://www.w3.org/1999/xlink" contentStyleType="text/css" height="742px" preserveAspectRatio="none" style="width:810px;height:742px;background:#FFFFFF;" version="1.1" viewBox="0 0 810 742" width="810px" zoomAndPan="magnify"><defs/><g><!--MD5=[d25a1e1955b7afad12524338dc92943e]
cluster src_typeorm_f2abad60--><g id="cluster_src_typeorm_f2abad60"><path d="M8.5,6 L105.5,6 A3.75,3.75 0 0 1 108,8.5 L115,28.2969 L800.5,28.2969 A2.5,2.5 0 0 1 803,30.7969 L803,732.5 A2.5,2.5 0 0 1 800.5,735 L8.5,735 A2.5,2.5 0 0 1 6,732.5 L6,8.5 A2.5,2.5 0 0 1 8.5,6 " style="stroke:#000000;stroke-width:1.5;fill:none;"/><line style="stroke:#000000;stroke-width:1.5;fill:none;" x1="6" x2="115" y1="28.2969" y2="28.2969"/><text fill="#000000" font-family="sans-serif" font-size="14" font-weight="bold" lengthAdjust="spacing" textLength="96" x="10" y="20.9951">src/typeorm</text></g><!--MD5=[aa849d6c4d04ead0dbf5aa31023dd065]
class order_type_e4b83a15--><g id="elem_order_type_e4b83a15"><rect codeLine="2" fill="#F1F1F1" height="80.5938" id="order_type_e4b83a15" rx="2.5" ry="2.5" style="stroke:#181818;stroke-width:0.5;" width="118" x="255" y="41"/><ellipse cx="274.5" cy="57" fill="#EB937F" rx="11" ry="11" style="stroke:#181818;stroke-width:1.0;"/><path d="M278.625,63.5 L270.8906,63.5 L270.8906,50.5 L278.625,50.5 L278.625,52.7656 L273.3438,52.7656 L273.3438,55.5 L278.125,55.5 L278.125,57.7656 L273.3438,57.7656 L273.3438,61.2344 L278.625,61.2344 L278.625,63.5 Z " fill="#000000"/><text fill="#000000" font-family="sans-serif" font-size="14" lengthAdjust="spacing" textLength="76" x="289.5" y="61.8467">OrderType</text><line style="stroke:#181818;stroke-width:0.5;" x1="256" x2="372" y1="73" y2="73"/><text fill="#000000" font-family="sans-serif" font-size="14" lengthAdjust="spacing" textLength="86" x="261" y="89.9951">ASC = 'ASC'</text><text fill="#000000" font-family="sans-serif" font-size="14" lengthAdjust="spacing" textLength="106" x="261" y="106.292">DESC = 'DESC'</text><line style="stroke:#181818;stroke-width:0.5;" x1="256" x2="372" y1="113.5938" y2="113.5938"/></g><!--MD5=[49272304c7496aec885c7bd2ca2b5c87]
entity order_by_e4b83a15--><g id="elem_order_by_e4b83a15"><rect fill="#F1F1F1" height="46.5938" rx="2.5" ry="2.5" style="stroke:#181818;stroke-width:0.5;" width="198" x="22" y="58"/><text fill="#000000" font-family="sans-serif" font-size="14" lengthAdjust="spacing" textLength="59" x="32" y="73.9951">OrderBy</text><line style="stroke:#181818;stroke-width:1.0;" x1="23" x2="219" y1="77.2969" y2="77.2969"/><text fill="#000000" font-family="sans-serif" font-size="14" lengthAdjust="spacing" textLength="178" x="32" y="94.292">{ [k: string]: OrderType }</text></g><!--MD5=[1bb84093f25888ffd5762e41ce9e8420]
class typeorm_common_dal_implementation_e4b83a15--><g id="elem_typeorm_common_dal_implementation_e4b83a15"><rect codeLine="11" fill="#F1F1F1" height="536.9063" id="typeorm_common_dal_implementation_e4b83a15" rx="2.5" ry="2.5" style="stroke:#181818;stroke-width:0.5;" width="477" x="22.5" y="182"/><ellipse cx="123.75" cy="198" fill="#A9DCDF" rx="11" ry="11" style="stroke:#181818;stroke-width:1.0;"/><path d="M123.875,193.3125 L122.7188,198.6406 L125.0313,198.6406 L123.875,193.3125 Z M122.375,190.75 L125.375,190.75 L128.7188,203.75 L126.2656,203.75 L125.5,200.75 L122.2188,200.75 L121.4688,203.75 L119.0313,203.75 L122.375,190.75 Z " fill="#000000"/><text fill="#000000" font-family="sans-serif" font-size="14" font-style="italic" lengthAdjust="spacing" textLength="266" x="144.25" y="202.8467">TypeormCommonDalImplementation</text><line style="stroke:#181818;stroke-width:0.5;" x1="23.5" x2="498.5" y1="214" y2="214"/><ellipse cx="33.5" cy="225" fill="none" rx="3" ry="3" style="stroke:#038048;stroke-width:1.0;"/><text fill="#000000" font-family="sans-serif" font-size="14" lengthAdjust="spacing" textLength="131" x="42.5" y="230.9951">EntityName: string</text><polygon fill="none" points="33.5,236.2969,37.5,240.2969,33.5,244.2969,29.5,240.2969" style="stroke:#B38D22;stroke-width:1.0;"/><text fill="#000000" font-family="sans-serif" font-size="14" lengthAdjust="spacing" textLength="193" x="42.5" y="247.292">_Repo: Repository&lt;Entity&gt;</text><polygon fill="none" points="33.5,252.5938,37.5,256.5938,33.5,260.5938,29.5,256.5938" style="stroke:#B38D22;stroke-width:1.0;"/><text fill="#000000" font-family="sans-serif" font-size="14" lengthAdjust="spacing" textLength="201" x="42.5" y="263.5889">_entity: ObjectType&lt;Entity&gt;</text><polygon fill="none" points="33.5,268.8906,37.5,272.8906,33.5,276.8906,29.5,272.8906" style="stroke:#B38D22;stroke-width:1.0;"/><text fill="#000000" font-family="sans-serif" font-size="14" lengthAdjust="spacing" textLength="149" x="42.5" y="279.8857">_fixedProperties: any</text><polygon fill="none" points="33.5,285.1875,37.5,289.1875,33.5,293.1875,29.5,289.1875" style="stroke:#B38D22;stroke-width:1.0;"/><text fill="#000000" font-family="sans-serif" font-size="14" lengthAdjust="spacing" textLength="167" x="42.5" y="296.1826">_fixedRelations: string[]</text><polygon fill="none" points="33.5,301.4844,37.5,305.4844,33.5,309.4844,29.5,305.4844" style="stroke:#B38D22;stroke-width:1.0;"/><text fill="#000000" font-family="sans-serif" font-size="14" lengthAdjust="spacing" textLength="205" x="42.5" y="312.4795">_isIdAutogenerated: boolean</text><line style="stroke:#181818;stroke-width:0.5;" x1="23.5" x2="498.5" y1="319.7813" y2="319.7813"/><polygon fill="#FFFF44" points="33.5,325.7813,37.5,329.7813,33.5,333.7813,29.5,329.7813" style="stroke:#B38D22;stroke-width:1.0;"/><text fill="#000000" font-family="sans-serif" font-size="14" lengthAdjust="spacing" textLength="443" x="42.5" y="336.7764">_filterToWhereArray(filter: OrmFilterOption): StringKeyObject[]</text><polygon fill="#FFFF44" points="33.5,342.0781,37.5,346.0781,33.5,350.0781,29.5,346.0781" style="stroke:#B38D22;stroke-width:1.0;"/><text fill="#000000" font-family="sans-serif" font-size="14" lengthAdjust="spacing" textLength="316" x="42.5" y="353.0732">_orderAdapter(sortByList?: string[]): OrderBy</text><polygon fill="#FFFF44" points="33.5,358.375,37.5,362.375,33.5,366.375,29.5,362.375" style="stroke:#B38D22;stroke-width:1.0;"/><text fill="#000000" font-family="sans-serif" font-size="14" lengthAdjust="spacing" textLength="418" x="42.5" y="369.3701">_paginationToWherePagination(pagination?: Pagination): {</text><text fill="#000000" font-family="sans-serif" font-size="14" lengthAdjust="spacing" textLength="101" x="46.5" y="385.667">take: number;</text><text fill="#000000" font-family="sans-serif" font-size="14" lengthAdjust="spacing" textLength="93" x="46.5" y="401.9639">skip: number</text><text fill="#000000" font-family="sans-serif" font-size="14" lengthAdjust="spacing" textLength="94" x="42.5" y="418.2607">} | undefined</text><polygon fill="#FFFF44" points="33.5,423.5625,37.5,427.5625,33.5,431.5625,29.5,427.5625" style="stroke:#B38D22;stroke-width:1.0;"/><text fill="#000000" font-family="sans-serif" font-size="14" lengthAdjust="spacing" textLength="442" x="42.5" y="434.5576">_repoFn: (entity: ObjectType&lt;Entity&gt;) =&gt; Repository&lt;Entity&gt;</text><ellipse cx="33.5" cy="444.8594" fill="#84BE84" rx="3" ry="3" style="stroke:#038048;stroke-width:1.0;"/><text fill="#000000" font-family="sans-serif" font-size="14" lengthAdjust="spacing" textLength="388" x="42.5" y="450.8545">addBulk(entities: Partial&lt;Entity&gt;[]): Promise&lt;Entity[]&gt;</text><polygon fill="#FFFF44" points="33.5,456.1563,37.5,460.1563,33.5,464.1563,29.5,460.1563" style="stroke:#B38D22;stroke-width:1.0;"/><text fill="#000000" font-family="sans-serif" font-size="14" lengthAdjust="spacing" textLength="158" x="42.5" y="467.1514">constructor(params: {</text><text fill="#000000" font-family="sans-serif" font-size="14" lengthAdjust="spacing" textLength="194" x="58.5" y="483.4482">entity: ObjectType&lt;Entity&gt;</text><text fill="#000000" font-family="sans-serif" font-size="14" lengthAdjust="spacing" textLength="396" x="58.5" y="499.7451">fixedProperties?: FindConditions&lt;Entity&gt; | ObjectLiteral</text><text fill="#000000" font-family="sans-serif" font-size="14" lengthAdjust="spacing" textLength="435" x="58.5" y="516.042">repoFn: (entity: ObjectType&lt;Entity&gt;) =&gt; Repository&lt;Entity&gt;</text><text fill="#000000" font-family="sans-serif" font-size="14" lengthAdjust="spacing" textLength="167" x="58.5" y="532.3389">fixedRelations?: string[]</text><text fill="#000000" font-family="sans-serif" font-size="14" lengthAdjust="spacing" textLength="205" x="58.5" y="548.6357">isIdAutogenerated?: boolean</text><text fill="#000000" font-family="sans-serif" font-size="14" lengthAdjust="spacing" textLength="14" x="50.5" y="564.9326">})</text><ellipse cx="33.5" cy="575.2344" fill="#84BE84" rx="3" ry="3" style="stroke:#038048;stroke-width:1.0;"/><text fill="#000000" font-family="sans-serif" font-size="14" lengthAdjust="spacing" textLength="388" x="42.5" y="581.2295">editBulk(entities: Partial&lt;Entity&gt;[]): Promise&lt;Entity[]&gt;</text><ellipse cx="33.5" cy="591.5313" fill="#84BE84" rx="3" ry="3" style="stroke:#038048;stroke-width:1.0;"/><text fill="#000000" font-family="sans-serif" font-size="14" lengthAdjust="spacing" textLength="438" x="42.5" y="597.5264">findMany(params?: OrmFindManyOptions): Promise&lt;Entity[]&gt;</text><ellipse cx="33.5" cy="607.8281" fill="#84BE84" rx="3" ry="3" style="stroke:#038048;stroke-width:1.0;"/><text fill="#000000" font-family="sans-serif" font-size="14" lengthAdjust="spacing" textLength="403" x="42.5" y="613.8232">findOne(params: OrmFindOneOptions): Promise&lt;Entity&gt;</text><ellipse cx="33.5" cy="624.125" fill="#84BE84" rx="3" ry="3" style="stroke:#038048;stroke-width:1.0;"/><text fill="#000000" font-family="sans-serif" font-size="14" lengthAdjust="spacing" textLength="158" x="42.5" y="630.1201">findOneById(id: string,</text><text fill="#000000" font-family="sans-serif" font-size="14" lengthAdjust="spacing" textLength="265" x="46.5" y="646.417">options: OrmFindOneByIdOptions = {</text><text fill="#000000" font-family="sans-serif" font-size="14" lengthAdjust="spacing" textLength="4" x="42.5" y="662.7139"> </text><text fill="#000000" font-family="sans-serif" font-size="14" lengthAdjust="spacing" textLength="144" x="42.5" y="679.0107">}): Promise&lt;Entity&gt;</text><ellipse cx="33.5" cy="689.3125" fill="#84BE84" rx="3" ry="3" style="stroke:#038048;stroke-width:1.0;"/><text fill="#000000" font-family="sans-serif" font-size="14" lengthAdjust="spacing" textLength="327" x="42.5" y="695.3076">removeBulk(entities: Entity[]): Promise&lt;void&gt;</text><ellipse cx="33.5" cy="705.6094" fill="#84BE84" rx="3" ry="3" style="stroke:#038048;stroke-width:1.0;"/><text fill="#000000" font-family="sans-serif" font-size="14" lengthAdjust="spacing" textLength="302" x="42.5" y="711.6045">removeByIds(ids: string[]): Promise&lt;void&gt;</text></g><g id="elem_database_util_9668cacf"><rect fill="#F1F1F1" height="60.8906" style="stroke:#181818;stroke-width:0.5;" width="379" x="408.5" y="51"/><text fill="#000000" font-family="sans-serif" font-size="14" lengthAdjust="spacing" textLength="89" x="553.5" y="65.9951">databaseUtil</text><line style="stroke:#181818;stroke-width:0.5;" x1="409.5" x2="786.5" y1="71.2969" y2="71.2969"/><ellipse cx="419.5" cy="82.2969" fill="none" rx="3" ry="3" style="stroke:#038048;stroke-width:1.0;"/><text fill="#000000" font-family="sans-serif" font-size="14" lengthAdjust="spacing" textLength="257" x="428.5" y="88.292">jsonTransformer: ValueTransformer</text><ellipse cx="419.5" cy="98.5938" fill="none" rx="3" ry="3" style="stroke:#038048;stroke-width:1.0;"/><text fill="#000000" font-family="sans-serif" font-size="14" lengthAdjust="spacing" textLength="353" x="428.5" y="104.5889">timestampToUnixTransformer: ValueTransformer</text></g><g id="elem_typeorm_filter_3b505f43"><rect fill="#F1F1F1" height="93.4844" style="stroke:#181818;stroke-width:0.5;" width="197" x="552.5" y="404"/><text fill="#000000" font-family="sans-serif" font-size="14" lengthAdjust="spacing" textLength="96" x="603" y="418.9951">typeormFilter</text><line style="stroke:#181818;stroke-width:0.5;" x1="553.5" x2="748.5" y1="424.2969" y2="424.2969"/><ellipse cx="563.5" cy="435.2969" fill="#84BE84" rx="3" ry="3" style="stroke:#038048;stroke-width:1.0;"/><text fill="#000000" font-family="sans-serif" font-size="14" lengthAdjust="spacing" textLength="167" x="572.5" y="441.292">convertFilter(params: {</text><text fill="#000000" font-family="sans-serif" font-size="14" lengthAdjust="spacing" textLength="96" x="576.5" y="457.5889">data: Entity[];</text><text fill="#000000" font-family="sans-serif" font-size="14" lengthAdjust="spacing" textLength="163" x="576.5" y="473.8857">filter?: OrmFilterOption</text><text fill="#000000" font-family="sans-serif" font-size="14" lengthAdjust="spacing" textLength="49" x="572.5" y="490.1826">}): any</text></g><!--MD5=[c4c4d1c21195a81f0a15c44ad32d2732]
reverse link order_by_e4b83a15 to typeorm_common_dal_implementation_e4b83a15--><g id="link_order_by_e4b83a15_typeorm_common_dal_implementation_e4b83a15"><path codeLine="39" d="M131.5,110.02 C138.31,127.87 147.94,153.13 158.92,181.91 " fill="none" id="order_by_e4b83a15-backto-typeorm_common_dal_implementation_e4b83a15" style="stroke:#181818;stroke-width:1.0;"/><polygon fill="#181818" points="129.65,105.18,129.1273,115.015,131.4353,109.8504,136.5999,112.1585,129.65,105.18" style="stroke:#181818;stroke-width:1.0;"/></g><!--MD5=[640b8bb1139223044db09f6f54ca4788]
reverse link typeorm_common_dal_implementation_e4b83a15 to typeorm_common_dal_implementation_e4b83a15--><g id="link_typeorm_common_dal_implementation_e4b83a15_typeorm_common_dal_implementation_e4b83a15"><path codeLine="40" d="M504.05,398.42 C522.88,409.92 534.5,427.28 534.5,450.5 C534.5,475.48 521.06,493.67 499.66,505.09 " fill="none" id="typeorm_common_dal_implementation_e4b83a15-backto-typeorm_common_dal_implementation_e4b83a15" style="stroke:#181818;stroke-width:1.0;"/><polygon fill="#181818" points="499.66,395.91,505.484,403.8523,503.9995,398.3938,509.458,396.9092,499.66,395.91" style="stroke:#181818;stroke-width:1.0;"/></g><!--MD5=[235bfc3805b4dfe0f790bd9ad5d5eddc]
@startuml
    folder "src/typeorm" as src_typeorm_f2abad60 {
      enum "OrderType" as order_type_e4b83a15 {
        ASC = 'ASC'
        DESC = 'DESC'
      }
      card order_by_e4b83a15 [
        OrderBy
        - - -
        { [k: string]: OrderType }
      ]
      abstract "TypeormCommonDalImplementation" as typeorm_common_dal_implementation_e4b83a15 {
        + EntityName: string
        # _Repo: Repository<Entity>
        # _entity: ObjectType<Entity>
        # _filterToWhereArray(filter: OrmFilterOption): StringKeyObject[]
        # _fixedProperties: any
        # _fixedRelations: string[]
        # _isIdAutogenerated: boolean
        # _orderAdapter(sortByList?: string[]): OrderBy
        # _paginationToWherePagination(pagination?: Pagination): {\n take: number;\n skip: number \n} | undefined
        # _repoFn: (entity: ObjectType<Entity>) => Repository<Entity>
        + addBulk(entities: Partial<Entity>[]): Promise<Entity[]>
        # constructor(params: {\n    entity: ObjectType<Entity>\n    fixedProperties?: FindConditions<Entity> | ObjectLiteral\n    repoFn: (entity: ObjectType<Entity>) => Repository<Entity>\n    fixedRelations?: string[]\n    isIdAutogenerated?: boolean\n  })
        + editBulk(entities: Partial<Entity>[]): Promise<Entity[]>
        + findMany(params?: OrmFindManyOptions): Promise<Entity[]>
        + findOne(params: OrmFindOneOptions): Promise<Entity>
        + findOneById(id: string,\n options: OrmFindOneByIdOptions = {\n\n}): Promise<Entity>
        + removeBulk(entities: Entity[]): Promise<void>
        + removeByIds(ids: string[]): Promise<void>
      }
      object "databaseUtil" as database_util_9668cacf {
        + jsonTransformer: ValueTransformer
        + timestampToUnixTransformer: ValueTransformer
      }
      object "typeormFilter" as typeorm_filter_3b505f43 {
        + convertFilter(params: {\n data: Entity[];\n filter?: OrmFilterOption \n}): any
      }
    }
  typeorm_common_dal_implementation_e4b83a15 -up-> order_by_e4b83a15
  typeorm_common_dal_implementation_e4b83a15 -up-> typeorm_common_dal_implementation_e4b83a15
@enduml

PlantUML version 1.2022.4(Sat Apr 09 15:29:17 CEST 2022)
(GPL source distribution)
Java Runtime: OpenJDK Runtime Environment
JVM: OpenJDK 64-Bit Server VM
Default Encoding: UTF-8
Language: en
Country: US
--></g></svg>