<?xml version="1.0" encoding="UTF-8" standalone="no"?><svg xmlns="http://www.w3.org/2000/svg" xmlns:xlink="http://www.w3.org/1999/xlink" contentStyleType="text/css" height="389px" preserveAspectRatio="none" style="width:517px;height:389px;background:#FFFFFF;" version="1.1" viewBox="0 0 517 389" width="517px" zoomAndPan="magnify"><defs/><g><!--MD5=[0bb1daf88138800c595cf91cbbaaa9aa]
cluster src_firebase_155b6be5--><g id="cluster_src_firebase_155b6be5"><path d="M8.5,6 L102.5,6 A3.75,3.75 0 0 1 105,8.5 L112,28.2969 L507.5,28.2969 A2.5,2.5 0 0 1 510,30.7969 L510,379.5 A2.5,2.5 0 0 1 507.5,382 L8.5,382 A2.5,2.5 0 0 1 6,379.5 L6,8.5 A2.5,2.5 0 0 1 8.5,6 " style="stroke:#000000;stroke-width:1.5;fill:none;"/><line style="stroke:#000000;stroke-width:1.5;fill:none;" x1="6" x2="112" y1="28.2969" y2="28.2969"/><text fill="#000000" font-family="sans-serif" font-size="14" font-weight="bold" lengthAdjust="spacing" textLength="93" x="10" y="20.9951">src/firebase</text></g><!--MD5=[673ac1e33dc282305e3670184e4eb135]
class firebase_common_dal_implementation_3d9c2fd5--><g id="elem_firebase_common_dal_implementation_3d9c2fd5"><rect codeLine="2" fill="#F1F1F1" height="325.0469" id="firebase_common_dal_implementation_3d9c2fd5" rx="2.5" ry="2.5" style="stroke:#181818;stroke-width:0.5;" width="473" x="21.5" y="41"/><ellipse cx="122.25" cy="57" fill="#A9DCDF" rx="11" ry="11" style="stroke:#181818;stroke-width:1.0;"/><path d="M122.375,52.3125 L121.2188,57.6406 L123.5313,57.6406 L122.375,52.3125 Z M120.875,49.75 L123.875,49.75 L127.2188,62.75 L124.7656,62.75 L124,59.75 L120.7188,59.75 L119.9688,62.75 L117.5313,62.75 L120.875,49.75 Z " fill="#000000"/><text fill="#000000" font-family="sans-serif" font-size="14" font-style="italic" lengthAdjust="spacing" textLength="263" x="142.75" y="61.8467">FirebaseCommonDalImplementation</text><line style="stroke:#181818;stroke-width:0.5;" x1="22.5" x2="493.5" y1="73" y2="73"/><ellipse cx="32.5" cy="84" fill="none" rx="3" ry="3" style="stroke:#038048;stroke-width:1.0;"/><text fill="#000000" font-family="sans-serif" font-size="14" lengthAdjust="spacing" textLength="131" x="41.5" y="89.9951">EntityName: string</text><polygon fill="none" points="32.5,95.2969,36.5,99.2969,32.5,103.2969,28.5,99.2969" style="stroke:#B38D22;stroke-width:1.0;"/><text fill="#000000" font-family="sans-serif" font-size="14" lengthAdjust="spacing" textLength="198" x="41.5" y="106.292">_Repo: CollectionReference</text><polygon fill="none" points="32.5,111.5938,36.5,115.5938,32.5,119.5938,28.5,115.5938" style="stroke:#B38D22;stroke-width:1.0;"/><text fill="#000000" font-family="sans-serif" font-size="14" lengthAdjust="spacing" textLength="138" x="41.5" y="122.5889">_entityName: string</text><line style="stroke:#181818;stroke-width:0.5;" x1="22.5" x2="493.5" y1="129.8906" y2="129.8906"/><polygon fill="#FFFF44" points="32.5,135.8906,36.5,139.8906,32.5,143.8906,28.5,139.8906" style="stroke:#B38D22;stroke-width:1.0;"/><text fill="#000000" font-family="sans-serif" font-size="14" lengthAdjust="spacing" textLength="384" x="41.5" y="146.8857">_repoFn: (entityName: string) =&gt; CollectionReference</text><polygon fill="#FFFF44" points="32.5,152.1875,36.5,156.1875,32.5,160.1875,28.5,156.1875" style="stroke:#B38D22;stroke-width:1.0;"/><text fill="#000000" font-family="sans-serif" font-size="14" lengthAdjust="spacing" textLength="447" x="41.5" y="163.1826">_snapshotToArray(snapshot: QuerySnapshot): DocumentData[]</text><ellipse cx="32.5" cy="173.4844" fill="#84BE84" rx="3" ry="3" style="stroke:#038048;stroke-width:1.0;"/><text fill="#000000" font-family="sans-serif" font-size="14" lengthAdjust="spacing" textLength="395" x="41.5" y="179.4795">addBulk(_entities: Partial&lt;Entity&gt;[]): Promise&lt;Entity[]&gt;</text><polygon fill="#FFFF44" points="32.5,184.7813,36.5,188.7813,32.5,192.7813,28.5,188.7813" style="stroke:#B38D22;stroke-width:1.0;"/><text fill="#000000" font-family="sans-serif" font-size="14" lengthAdjust="spacing" textLength="158" x="41.5" y="195.7764">constructor(params: {</text><text fill="#000000" font-family="sans-serif" font-size="14" lengthAdjust="spacing" textLength="136" x="45.5" y="212.0732">entityName: string;</text><text fill="#000000" font-family="sans-serif" font-size="14" lengthAdjust="spacing" textLength="377" x="45.5" y="228.3701">repoFn: (entityName: string) =&gt; CollectionReference</text><text fill="#000000" font-family="sans-serif" font-size="14" lengthAdjust="spacing" textLength="14" x="41.5" y="244.667">})</text><ellipse cx="32.5" cy="254.9688" fill="#84BE84" rx="3" ry="3" style="stroke:#038048;stroke-width:1.0;"/><text fill="#000000" font-family="sans-serif" font-size="14" lengthAdjust="spacing" textLength="395" x="41.5" y="260.9639">editBulk(_entities: Partial&lt;Entity&gt;[]): Promise&lt;Entity[]&gt;</text><ellipse cx="32.5" cy="271.2656" fill="#84BE84" rx="3" ry="3" style="stroke:#038048;stroke-width:1.0;"/><text fill="#000000" font-family="sans-serif" font-size="14" lengthAdjust="spacing" textLength="443" x="41.5" y="277.2607">findMany(_options?: OrmFindManyOptions): Promise&lt;Entity[]&gt;</text><ellipse cx="32.5" cy="287.5625" fill="#84BE84" rx="3" ry="3" style="stroke:#038048;stroke-width:1.0;"/><text fill="#000000" font-family="sans-serif" font-size="14" lengthAdjust="spacing" textLength="415" x="41.5" y="293.5576">findOne(_options?: OrmFindOneOptions): Promise&lt;Entity&gt;</text><ellipse cx="32.5" cy="303.8594" fill="#84BE84" rx="3" ry="3" style="stroke:#038048;stroke-width:1.0;"/><text fill="#000000" font-family="sans-serif" font-size="14" lengthAdjust="spacing" textLength="165" x="41.5" y="309.8545">findOneById(_id: string,</text><text fill="#000000" font-family="sans-serif" font-size="14" lengthAdjust="spacing" textLength="385" x="45.5" y="326.1514">_options?: OrmFindOneByIdOptions): Promise&lt;Entity&gt;</text><ellipse cx="32.5" cy="336.4531" fill="#84BE84" rx="3" ry="3" style="stroke:#038048;stroke-width:1.0;"/><text fill="#000000" font-family="sans-serif" font-size="14" lengthAdjust="spacing" textLength="391" x="41.5" y="342.4482">removeBulk(_entity: Partial&lt;Entity&gt;[]): Promise&lt;void&gt;</text><ellipse cx="32.5" cy="352.75" fill="#84BE84" rx="3" ry="3" style="stroke:#038048;stroke-width:1.0;"/><text fill="#000000" font-family="sans-serif" font-size="14" lengthAdjust="spacing" textLength="309" x="41.5" y="358.7451">removeByIds(_ids: string[]): Promise&lt;void&gt;</text></g><!--MD5=[e4250b17b09f59ff51526a23d105d8ee]
@startuml
    folder "src/firebase" as src_firebase_155b6be5 {
      abstract "FirebaseCommonDalImplementation" as firebase_common_dal_implementation_3d9c2fd5 {
        + EntityName: string
        # _Repo: CollectionReference
        # _entityName: string
        # _repoFn: (entityName: string) => CollectionReference
        # _snapshotToArray(snapshot: QuerySnapshot): DocumentData[]
        + addBulk(_entities: Partial<Entity>[]): Promise<Entity[]>
        # constructor(params: {\n entityName: string;\n repoFn: (entityName: string) => CollectionReference \n})
        + editBulk(_entities: Partial<Entity>[]): Promise<Entity[]>
        + findMany(_options?: OrmFindManyOptions): Promise<Entity[]>
        + findOne(_options?: OrmFindOneOptions): Promise<Entity>
        + findOneById(_id: string,\n _options?: OrmFindOneByIdOptions): Promise<Entity>
        + removeBulk(_entity: Partial<Entity>[]): Promise<void>
        + removeByIds(_ids: string[]): Promise<void>
      }
    }
@enduml

PlantUML version 1.2022.4(Sat Apr 09 15:29:17 CEST 2022)
(GPL source distribution)
Java Runtime: OpenJDK Runtime Environment
JVM: OpenJDK 64-Bit Server VM
Default Encoding: UTF-8
Language: en
Country: US
--></g></svg>